<svg width="78" height="78" viewBox="0 0 78 78" fill="none" xmlns="http://www.w3.org/2000/svg">
<rect width="78" height="78" rx="39" fill="url(#paint0_linear_1_2024)" fill-opacity="0.05"/>
<rect x="10" y="10" width="58" height="58" rx="29" fill="url(#paint1_linear_1_2024)" fill-opacity="0.1"/>
<rect x="10.5" y="10.5" width="57" height="57" rx="28.5" stroke="url(#paint2_linear_1_2024)" stroke-opacity="0.2"/>
<path fill-rule="evenodd" clip-rule="evenodd" d="M27.75 26.8125C27.2322 26.8125 26.8125 27.2322 26.8125 27.75C26.8125 28.2678 27.2322 28.6875 27.75 28.6875V49.3125H26.8125C26.2947 49.3125 25.875 49.7322 25.875 50.25C25.875 50.7678 26.2947 51.1875 26.8125 51.1875H42.75V28.6875C43.2678 28.6875 43.6875 28.2678 43.6875 27.75C43.6875 27.2322 43.2678 26.8125 42.75 26.8125H27.75ZM32.4375 48.375V45.5625C32.4375 45.0447 32.8572 44.625 33.375 44.625H37.125C37.6428 44.625 38.0625 45.0447 38.0625 45.5625V48.375C38.0625 48.8928 37.6428 49.3125 37.125 49.3125H33.375C32.8572 49.3125 32.4375 48.8928 32.4375 48.375ZM31.5 32.4375C31.5 31.9197 31.9197 31.5 32.4375 31.5H33.375C33.8928 31.5 34.3125 31.9197 34.3125 32.4375C34.3125 32.9553 33.8928 33.375 33.375 33.375H32.4375C31.9197 33.375 31.5 32.9553 31.5 32.4375ZM32.4375 35.25C31.9197 35.25 31.5 35.6697 31.5 36.1875C31.5 36.7053 31.9197 37.125 32.4375 37.125H33.375C33.8928 37.125 34.3125 36.7053 34.3125 36.1875C34.3125 35.6697 33.8928 35.25 33.375 35.25H32.4375ZM31.5 39.9375C31.5 39.4197 31.9197 39 32.4375 39H33.375C33.8928 39 34.3125 39.4197 34.3125 39.9375C34.3125 40.4553 33.8928 40.875 33.375 40.875H32.4375C31.9197 40.875 31.5 40.4553 31.5 39.9375ZM37.125 31.5C36.6072 31.5 36.1875 31.9197 36.1875 32.4375C36.1875 32.9553 36.6072 33.375 37.125 33.375H38.0625C38.5803 33.375 39 32.9553 39 32.4375C39 31.9197 38.5803 31.5 38.0625 31.5H37.125ZM36.1875 36.1875C36.1875 35.6697 36.6072 35.25 37.125 35.25H38.0625C38.5803 35.25 39 35.6697 39 36.1875C39 36.7053 38.5803 37.125 38.0625 37.125H37.125C36.6072 37.125 36.1875 36.7053 36.1875 36.1875ZM37.125 39C36.6072 39 36.1875 39.4197 36.1875 39.9375C36.1875 40.4553 36.6072 40.875 37.125 40.875H38.0625C38.5803 40.875 39 40.4553 39 39.9375C39 39.4197 38.5803 39 38.0625 39H37.125Z" fill="#CAFF33"/>
<path fill-rule="evenodd" clip-rule="evenodd" d="M44.625 32.4375V51.1875H51.1875C51.7053 51.1875 52.125 50.7678 52.125 50.25C52.125 49.7322 51.7053 49.3125 51.1875 49.3125H50.25V34.3125C50.7678 34.3125 51.1875 33.8928 51.1875 33.375C51.1875 32.8572 50.7678 32.4375 50.25 32.4375H44.625ZM46.5 38.0625C46.5 37.5447 46.9197 37.125 47.4375 37.125H47.4469C47.9646 37.125 48.3844 37.5447 48.3844 38.0625V38.0719C48.3844 38.5896 47.9646 39.0094 47.4469 39.0094H47.4375C46.9197 39.0094 46.5 38.5896 46.5 38.0719V38.0625ZM47.4375 40.875C46.9197 40.875 46.5 41.2947 46.5 41.8125V41.8219C46.5 42.3396 46.9197 42.7594 47.4375 42.7594H47.4469C47.9646 42.7594 48.3844 42.3396 48.3844 41.8219V41.8125C48.3844 41.2947 47.9646 40.875 47.4469 40.875H47.4375ZM46.5 45.5625C46.5 45.0447 46.9197 44.625 47.4375 44.625H47.4469C47.9646 44.625 48.3844 45.0447 48.3844 45.5625V45.5719C48.3844 46.0896 47.9646 46.5094 47.4469 46.5094H47.4375C46.9197 46.5094 46.5 46.0896 46.5 45.5719V45.5625Z" fill="#CAFF33"/>
<defs>
<linearGradient id="paint0_linear_1_2024" x1="39" y1="0" x2="39" y2="78" gradientUnits="userSpaceOnUse">
<stop stop-color="#CAFF33"/>
<stop offset="1" stop-color="#CAFF33" stop-opacity="0"/>
</linearGradient>
<linearGradient id="paint1_linear_1_2024" x1="39" y1="-28.4054" x2="39" y2="159.703" gradientUnits="userSpaceOnUse">
<stop stop-color="#CAFF33"/>
<stop offset="0.467671" stop-color="#CAFF33" stop-opacity="0"/>
</linearGradient>
<linearGradient id="paint2_linear_1_2024" x1="39" y1="-90.7162" x2="39" y2="120.514" gradientUnits="userSpaceOnUse">
<stop stop-color="#CAFF33"/>
<stop offset="0.716291" stop-color="#CAFF33" stop-opacity="0"/>
</linearGradient>
</defs>
</svg>
