<svg width="78" height="78" viewBox="0 0 78 78" fill="none" xmlns="http://www.w3.org/2000/svg">
<rect width="78" height="78" rx="39" fill="url(#paint0_linear_1_1961)" fill-opacity="0.05"/>
<rect x="10" y="10" width="58" height="58" rx="29" fill="url(#paint1_linear_1_1961)" fill-opacity="0.1"/>
<rect x="10.5" y="10.5" width="57" height="57" rx="28.5" stroke="url(#paint2_linear_1_1961)" stroke-opacity="0.2"/>
<g clip-path="url(#clip0_1_1961)">
<path d="M48.6577 38.0183C48.6577 38.7661 48.6677 39.509 48.6527 40.2569C48.6426 40.6603 48.7581 41.0146 48.9688 41.3491C49.5108 42.2249 50.2285 42.958 50.9562 43.6812C51.2272 43.9518 51.5082 44.2077 51.7943 44.4586C51.9348 44.5816 52.0001 44.7095 52.0001 44.9014C51.99 45.7231 51.99 46.5398 51.995 47.3614C52.0001 48.0453 51.6989 48.557 51.0716 48.8424C50.4292 49.1326 49.827 49.0096 49.3001 48.5619C48.211 47.6271 47.127 46.6874 46.043 45.7526C45.3053 45.113 44.5726 44.4635 43.8198 43.8436C43.5538 43.6222 43.2376 43.4598 42.9315 43.2925C42.4798 43.0465 41.993 42.9137 41.466 42.9334C41.0846 42.9481 40.6932 42.9531 40.3118 42.9235C39.7547 42.8793 39.3582 42.5004 39.283 41.9789C39.2127 41.5213 39.4887 41.0293 39.9504 40.8522C40.1261 40.7833 40.3218 40.7538 40.5125 40.7538C41.9579 40.744 43.4032 40.7489 44.8536 40.7489C45.3956 40.7489 45.5913 40.557 45.5913 40.0207C45.5913 38.9383 45.5863 37.8559 45.5913 36.7735C45.5963 36.3602 45.4508 36.0355 45.1346 35.755C43.3129 34.1511 41.5012 32.5373 39.6844 30.9235C39.1976 30.4906 39.1424 29.851 39.5489 29.3836C39.9504 28.9162 40.6079 28.8719 41.1248 29.2655C43.4484 31.0367 45.767 32.8079 48.1006 34.5693C48.487 34.8596 48.6677 35.2138 48.6627 35.6812C48.6527 36.4586 48.6577 37.236 48.6577 38.0183Z" fill="#CAFF33"/>
<path d="M25.005 46.2053C25.005 45.7625 25.01 45.3197 25 44.8769C24.995 44.7047 25.0652 44.5915 25.1807 44.4735C25.9385 43.7109 26.6863 42.9384 27.429 42.161C27.5846 41.9987 27.7 41.8068 27.8355 41.6297C28.1918 41.1524 28.3574 40.6309 28.3424 40.0208C28.3123 38.6137 28.3474 37.2016 28.3273 35.7896C28.3173 35.2336 28.518 34.84 28.9747 34.4956C31.2933 32.7637 33.5868 31.0024 35.8903 29.2459C36.3721 28.8769 37.0346 28.9359 37.426 29.3788C37.8275 29.8314 37.7924 30.4808 37.3257 30.904C36.618 31.5436 35.9004 32.1684 35.1877 32.8031C34.0586 33.8019 32.9294 34.8056 31.8002 35.8043C31.5342 36.0405 31.4037 36.3259 31.4037 36.6703C31.4037 37.8166 31.3987 38.963 31.4037 40.1143C31.4037 40.5374 31.6245 40.7441 32.0612 40.7441C33.5517 40.749 35.0372 40.7441 36.5277 40.749C37.2303 40.749 37.7221 41.2312 37.7071 41.8806C37.697 42.3775 37.3307 42.8252 36.8238 42.899C36.5227 42.9433 36.2065 42.963 35.9004 42.9335C34.8716 42.8351 34.0034 43.2041 33.2355 43.8043C32.4526 44.4144 31.7199 45.0934 30.9721 45.7379C29.8731 46.6826 28.779 47.6371 27.6749 48.5768C26.7816 49.3394 25.4617 49.0048 25.0803 47.9175C25.0301 47.7797 25.0151 47.6272 25.01 47.4845C25 47.0614 25.005 46.6334 25.005 46.2053Z" fill="#CAFF33"/>
<path d="M39.2126 39.0369C39.2126 39.2731 39.2126 39.4945 39.2126 39.7356C38.7911 39.7356 38.3896 39.7356 37.9529 39.7356C37.9529 39.5437 37.9479 39.3567 37.9529 39.1698C37.958 39.032 37.9178 38.973 37.7723 38.9385C37.3557 38.8401 36.9693 38.6728 36.608 38.3875C36.8388 38.0874 37.0596 37.802 37.2604 37.5363C37.6418 37.679 37.9881 37.8463 38.3544 37.9299C38.6204 37.989 38.9165 37.9496 39.1925 37.9053C39.4033 37.8709 39.5388 37.7085 39.5539 37.4871C39.574 37.2608 39.4535 37.1033 39.2528 37.0246C38.9115 36.8967 38.5552 36.7983 38.2089 36.6851C37.958 36.6015 37.697 36.5277 37.4511 36.4244C36.874 36.1833 36.5678 35.7552 36.5528 35.1255C36.5377 34.4662 36.7886 33.9348 37.3909 33.6495C37.7823 33.4625 38.1186 33.3247 37.9228 32.7786C38.3494 32.7786 38.7208 32.7737 39.0972 32.7885C39.1373 32.7885 39.2076 32.9115 39.2076 32.9803C39.2327 33.3985 39.2327 33.3887 39.6292 33.5265C39.86 33.6052 40.0808 33.7183 40.3318 33.8315C40.121 34.1513 39.9503 34.4318 39.7596 34.6974C39.7295 34.7368 39.6091 34.7319 39.5388 34.7122C39.2076 34.6286 38.8864 34.5203 38.5552 34.4564C38.4247 34.4318 38.2741 34.4711 38.1386 34.5056C37.9379 34.5597 37.8024 34.6925 37.7873 34.909C37.7723 35.1206 37.8676 35.2829 38.0634 35.3616C38.3193 35.465 38.5803 35.5437 38.8412 35.6273C39.1273 35.7208 39.4234 35.7897 39.6994 35.893C40.4974 36.1981 40.8186 36.6802 40.7784 37.4723C40.7383 38.2005 40.2816 38.7417 39.5288 38.9533C39.4384 38.9828 39.3431 39.0074 39.2126 39.0369Z" fill="#CAFF33"/>
</g>
<defs>
<linearGradient id="paint0_linear_1_1961" x1="39" y1="0" x2="39" y2="78" gradientUnits="userSpaceOnUse">
<stop stop-color="#CAFF33"/>
<stop offset="1" stop-color="#CAFF33" stop-opacity="0"/>
</linearGradient>
<linearGradient id="paint1_linear_1_1961" x1="39" y1="-28.4054" x2="39" y2="159.703" gradientUnits="userSpaceOnUse">
<stop stop-color="#CAFF33"/>
<stop offset="0.467671" stop-color="#CAFF33" stop-opacity="0"/>
</linearGradient>
<linearGradient id="paint2_linear_1_1961" x1="39" y1="-90.7162" x2="39" y2="120.514" gradientUnits="userSpaceOnUse">
<stop stop-color="#CAFF33"/>
<stop offset="0.716291" stop-color="#CAFF33" stop-opacity="0"/>
</linearGradient>
<clipPath id="clip0_1_1961">
<rect width="27" height="20" fill="white" transform="translate(25 29)"/>
</clipPath>
</defs>
</svg>
