<svg width="78" height="78" viewBox="0 0 78 78" fill="none" xmlns="http://www.w3.org/2000/svg">
<rect width="78" height="78" rx="39" fill="url(#paint0_linear_1_2043)" fill-opacity="0.05"/>
<rect x="10" y="10" width="58" height="58" rx="29" fill="url(#paint1_linear_1_2043)" fill-opacity="0.1"/>
<rect x="10.5" y="10.5" width="57" height="57" rx="28.5" stroke="url(#paint2_linear_1_2043)" stroke-opacity="0.2"/>
<path d="M37.0795 34.9328C37.3635 34.7072 37.7009 34.5431 38.0625 34.4406V37.9343C37.694 37.8297 37.3575 37.663 37.0795 37.4422C36.5873 37.0512 36.3969 36.5912 36.3969 36.1875C36.3969 35.7838 36.5873 35.3238 37.0795 34.9328Z" fill="#CAFF33"/>
<path d="M39.9375 43.577V40.0479C40.3716 40.1535 40.7672 40.3322 41.0892 40.5737C41.6223 40.9735 41.8125 41.4311 41.8125 41.8125C41.8125 42.1939 41.6223 42.6514 41.0892 43.0512C40.7672 43.2927 40.3716 43.4715 39.9375 43.577Z" fill="#CAFF33"/>
<path fill-rule="evenodd" clip-rule="evenodd" d="M39 26.8125C32.269 26.8125 26.8125 32.269 26.8125 39C26.8125 45.731 32.269 51.1875 39 51.1875C45.731 51.1875 51.1875 45.731 51.1875 39C51.1875 32.269 45.731 26.8125 39 26.8125ZM39.9375 31.5C39.9375 30.9822 39.5178 30.5625 39 30.5625C38.4822 30.5625 38.0625 30.9822 38.0625 31.5V32.5195C37.2789 32.6584 36.5317 32.9734 35.9132 33.4647C35.0228 34.1721 34.5219 35.1516 34.5219 36.1875C34.5219 37.2234 35.0228 38.2029 35.9132 38.9103C36.5413 39.4092 37.2908 39.7188 38.0625 39.8554V43.5769C37.6285 43.4714 37.233 43.2926 36.9111 43.0512L35.8125 42.2272C35.3983 41.9166 34.8107 42.0005 34.5 42.4147C34.1893 42.8289 34.2733 43.4165 34.6875 43.7272L35.7861 44.5512C36.4526 45.0511 37.2474 45.357 38.0625 45.4879V46.5C38.0625 47.0178 38.4822 47.4375 39 47.4375C39.5178 47.4375 39.9375 47.0178 39.9375 46.5V45.488C40.7527 45.357 41.5476 45.0511 42.2142 44.5512C43.1455 43.8527 43.6875 42.8706 43.6875 41.8125C43.6875 40.7543 43.1455 39.7723 42.2142 39.0737C41.5476 38.5738 40.7527 38.2679 39.9375 38.137V34.4407C40.299 34.5432 40.6362 34.7073 40.9201 34.9328L41.4388 35.3448C41.8442 35.6669 42.4339 35.5993 42.756 35.1939C43.078 34.7885 43.0105 34.1987 42.605 33.8767L42.0864 33.4647C41.4681 32.9735 40.721 32.6585 39.9375 32.5196V31.5Z" fill="#CAFF33"/>
<defs>
<linearGradient id="paint0_linear_1_2043" x1="39" y1="0" x2="39" y2="78" gradientUnits="userSpaceOnUse">
<stop stop-color="#CAFF33"/>
<stop offset="1" stop-color="#CAFF33" stop-opacity="0"/>
</linearGradient>
<linearGradient id="paint1_linear_1_2043" x1="39" y1="-28.4054" x2="39" y2="159.703" gradientUnits="userSpaceOnUse">
<stop stop-color="#CAFF33"/>
<stop offset="0.467671" stop-color="#CAFF33" stop-opacity="0"/>
</linearGradient>
<linearGradient id="paint2_linear_1_2043" x1="39" y1="-90.7162" x2="39" y2="120.514" gradientUnits="userSpaceOnUse">
<stop stop-color="#CAFF33"/>
<stop offset="0.716291" stop-color="#CAFF33" stop-opacity="0"/>
</linearGradient>
</defs>
</svg>
