<svg width="78" height="78" viewBox="0 0 78 78" fill="none" xmlns="http://www.w3.org/2000/svg">
<rect width="78" height="78" rx="39" fill="url(#paint0_linear_1_2037)" fill-opacity="0.05"/>
<rect x="10" y="10" width="58" height="58" rx="29" fill="url(#paint1_linear_1_2037)" fill-opacity="0.1"/>
<rect x="10.5" y="10.5" width="57" height="57" rx="28.5" stroke="url(#paint2_linear_1_2037)" stroke-opacity="0.2"/>
<path fill-rule="evenodd" clip-rule="evenodd" d="M26.8125 26.8125C26.2947 26.8125 25.875 27.2322 25.875 27.75C25.875 28.2678 26.2947 28.6875 26.8125 28.6875H27.75V41.8125C27.75 43.8836 29.4289 45.5625 31.5 45.5625H33.0118L31.5481 49.9535C31.3844 50.4447 31.6498 50.9757 32.141 51.1394C32.6322 51.3031 33.1632 51.0377 33.3269 50.5465L33.7382 49.3125H44.2618L44.6731 50.5465C44.8368 51.0377 45.3678 51.3031 45.859 51.1394C46.3502 50.9757 46.6156 50.4447 46.4519 49.9535L44.9882 45.5625H46.5C48.5711 45.5625 50.25 43.8836 50.25 41.8125V28.6875H51.1875C51.7053 28.6875 52.125 28.2678 52.125 27.75C52.125 27.2322 51.7053 26.8125 51.1875 26.8125H26.8125ZM34.3632 47.4375L34.9882 45.5625H43.0118L43.6368 47.4375H34.3632ZM43.6875 32.4375C43.6875 31.9197 43.2678 31.5 42.75 31.5C42.2322 31.5 41.8125 31.9197 41.8125 32.4375V39.9375C41.8125 40.4553 42.2322 40.875 42.75 40.875C43.2678 40.875 43.6875 40.4553 43.6875 39.9375V32.4375ZM39.9375 35.25C39.9375 34.7322 39.5178 34.3125 39 34.3125C38.4822 34.3125 38.0625 34.7322 38.0625 35.25V39.9375C38.0625 40.4553 38.4822 40.875 39 40.875C39.5178 40.875 39.9375 40.4553 39.9375 39.9375V35.25ZM36.1875 38.0625C36.1875 37.5447 35.7678 37.125 35.25 37.125C34.7322 37.125 34.3125 37.5447 34.3125 38.0625V39.9375C34.3125 40.4553 34.7322 40.875 35.25 40.875C35.7678 40.875 36.1875 40.4553 36.1875 39.9375V38.0625Z" fill="#CAFF33"/>
<defs>
<linearGradient id="paint0_linear_1_2037" x1="39" y1="0" x2="39" y2="78" gradientUnits="userSpaceOnUse">
<stop stop-color="#CAFF33"/>
<stop offset="1" stop-color="#CAFF33" stop-opacity="0"/>
</linearGradient>
<linearGradient id="paint1_linear_1_2037" x1="39" y1="-28.4054" x2="39" y2="159.703" gradientUnits="userSpaceOnUse">
<stop stop-color="#CAFF33"/>
<stop offset="0.467671" stop-color="#CAFF33" stop-opacity="0"/>
</linearGradient>
<linearGradient id="paint2_linear_1_2037" x1="39" y1="-90.7162" x2="39" y2="120.514" gradientUnits="userSpaceOnUse">
<stop stop-color="#CAFF33"/>
<stop offset="0.716291" stop-color="#CAFF33" stop-opacity="0"/>
</linearGradient>
</defs>
</svg>
