<svg width="78" height="78" viewBox="0 0 78 78" fill="none" xmlns="http://www.w3.org/2000/svg">
<rect width="78" height="78" rx="39" fill="url(#paint0_linear_1_2030)" fill-opacity="0.05"/>
<rect x="10" y="10" width="58" height="58" rx="29" fill="url(#paint1_linear_1_2030)" fill-opacity="0.1"/>
<rect x="10.5" y="10.5" width="57" height="57" rx="28.5" stroke="url(#paint2_linear_1_2030)" stroke-opacity="0.2"/>
<path d="M39 33.375C37.4467 33.375 36.1875 34.6342 36.1875 36.1875C36.1875 37.7408 37.4467 39 39 39C40.5533 39 41.8125 37.7408 41.8125 36.1875C41.8125 34.6342 40.5533 33.375 39 33.375Z" fill="#CAFF33"/>
<path fill-rule="evenodd" clip-rule="evenodd" d="M25.875 30.0938C25.875 28.7993 26.9243 27.75 28.2188 27.75H49.7812C51.0757 27.75 52.125 28.7993 52.125 30.0938V42.2813C52.125 43.5757 51.0757 44.625 49.7812 44.625H28.2187C26.9243 44.625 25.875 43.5757 25.875 42.2813V30.0938ZM34.3125 36.1875C34.3125 33.5987 36.4112 31.5 39 31.5C41.5888 31.5 43.6875 33.5987 43.6875 36.1875C43.6875 38.7763 41.5888 40.875 39 40.875C36.4112 40.875 34.3125 38.7763 34.3125 36.1875ZM47.4375 35.25C46.9197 35.25 46.5 35.6697 46.5 36.1875V36.1969C46.5 36.7146 46.9197 37.1344 47.4375 37.1344H47.4469C47.9646 37.1344 48.3844 36.7146 48.3844 36.1969V36.1875C48.3844 35.6697 47.9646 35.25 47.4469 35.25H47.4375ZM29.625 36.1875C29.625 35.6697 30.0447 35.25 30.5625 35.25H30.5719C31.0896 35.25 31.5094 35.6697 31.5094 36.1875V36.1969C31.5094 36.7146 31.0896 37.1344 30.5719 37.1344H30.5625C30.0447 37.1344 29.625 36.7146 29.625 36.1969V36.1875Z" fill="#CAFF33"/>
<path d="M26.8125 46.5C26.2947 46.5 25.875 46.9197 25.875 47.4375C25.875 47.9553 26.2947 48.375 26.8125 48.375C33.5626 48.375 40.1003 49.2778 46.3122 50.9686C47.8004 51.3737 49.3125 50.271 49.3125 48.6939V47.4375C49.3125 46.9197 48.8928 46.5 48.375 46.5H26.8125Z" fill="#CAFF33"/>
<defs>
<linearGradient id="paint0_linear_1_2030" x1="39" y1="0" x2="39" y2="78" gradientUnits="userSpaceOnUse">
<stop stop-color="#CAFF33"/>
<stop offset="1" stop-color="#CAFF33" stop-opacity="0"/>
</linearGradient>
<linearGradient id="paint1_linear_1_2030" x1="39" y1="-28.4054" x2="39" y2="159.703" gradientUnits="userSpaceOnUse">
<stop stop-color="#CAFF33"/>
<stop offset="0.467671" stop-color="#CAFF33" stop-opacity="0"/>
</linearGradient>
<linearGradient id="paint2_linear_1_2030" x1="39" y1="-90.7162" x2="39" y2="120.514" gradientUnits="userSpaceOnUse">
<stop stop-color="#CAFF33"/>
<stop offset="0.716291" stop-color="#CAFF33" stop-opacity="0"/>
</linearGradient>
</defs>
</svg>
